<svg width="539" height="424" viewBox="0 0 539 424" fill="none" xmlns="http://www.w3.org/2000/svg">
<path fill-rule="evenodd" clip-rule="evenodd" d="M214.199 0H396.866L538.369 228.271L343.645 423.313L63.651 373.835L0 138.914L214.199 0ZM220.707 60.7697L136.591 245.491L216.195 310.808L325.098 264.367L220.707 60.7697ZM372.841 247.875L486.548 214.767L397.715 71.4612L372.841 247.875ZM365.235 36.6875H249.887L340.357 213.135L365.235 36.6875ZM451.368 263.249L367.709 287.608L360.987 353.779L451.368 263.249ZM321.782 373.409L328.97 302.656L254.218 334.534L321.782 373.409ZM237.378 367.268L102.707 343.47L123.038 282.002L202.488 347.193L237.378 367.268ZM93.0164 254.975L59.6504 217.588L80.2435 293.592L93.0164 254.975ZM49.3998 150.723L108.813 217.295L176.732 68.1448L49.3998 150.723Z" fill="url(#paint0_linear_4_7)"/>
<defs>
<linearGradient id="paint0_linear_4_7" x1="268.173" y1="18.3438" x2="268.173" y2="403.563" gradientUnits="userSpaceOnUse">
<stop stop-color="white" stop-opacity="0.8"/>
<stop offset="1" stop-color="white" stop-opacity="0.5"/>
</linearGradient>
</defs>
</svg>
